<svg xmlns="http://www.w3.org/2000/svg" width="512" height="512" viewBox="0 0 512 512" version="1.1">
	<path d="M 252.734 23.654 C 252.457 24.119, 251.899 26.525, 251.493 29 C 250.158 37.152, 247.089 42.102, 238.166 50.500 C 213.713 73.514, 211.932 75.880, 207.902 90.691 C 204.887 101.771, 205.193 101.511, 199.456 97.854 C 193.049 93.770, 185.663 90.050, 181.707 88.916 C 179.095 88.167, 177.916 88.451, 174.634 90.624 C 169.513 94.012, 164.888 93.450, 153.325 88.031 C 148.649 85.840, 144.195 83.924, 143.426 83.774 C 142.264 83.546, 141.951 88.284, 141.568 111.863 C 141.314 127.463, 140.868 140.465, 140.577 140.756 C 140.286 141.047, 139.474 140.809, 138.773 140.226 C 137.013 138.766, 116.690 134.993, 115.695 135.942 C 115.252 136.364, 114.455 139.785, 113.922 143.544 C 113.390 147.303, 112.812 150.521, 112.639 150.695 C 112.465 150.868, 106.063 151.120, 98.412 151.255 C 87.328 151.450, 82.924 151.104, 76.750 149.550 C 66.779 147.041, 65.719 147.896, 70.322 154.736 C 74.306 160.656, 76.908 169.947, 79.876 188.851 C 81.028 196.194, 83.357 206.094, 85.051 210.851 C 86.745 215.608, 88.353 220.191, 88.626 221.036 C 89.018 222.252, 87.638 222.827, 82.010 223.792 C 73.703 225.216, 68.969 227.426, 59.879 234.121 C 51.912 239.989, 47.341 241.712, 36.463 242.949 C 27.641 243.951, 22.323 245.698, 20.162 248.304 C 18.994 249.712, 19.185 250.005, 21.662 250.601 C 30.682 252.772, 38.664 259.651, 50.551 275.500 C 67.318 297.856, 81.905 308.695, 100.476 312.599 C 111.241 314.862, 111.401 315.287, 105.695 326.474 C 100.472 336.716, 96.179 341.301, 90.277 342.940 C 84.921 344.427, 76.956 344.249, 72.089 342.531 C 68.063 341.111, 67.900 341.135, 67.112 343.281 C 66.664 344.502, 66.015 346.972, 65.669 348.772 C 65.059 351.950, 65.197 352.113, 70.492 354.454 C 77.579 357.588, 82.977 361.353, 93.346 370.394 C 107.889 383.074, 119.009 389.492, 132.751 393.138 C 142.600 395.751, 160.391 395.990, 170.237 393.642 C 199.368 386.693, 226.643 365.485, 240.484 339.021 L 244.940 330.500 244.341 369 C 243.951 394.094, 244.144 413.245, 244.897 424 C 246.008 439.877, 249.492 473.094, 250.534 477.750 C 251.220 480.812, 254.330 480.664, 261.071 477.250 C 267.406 474.041, 267.341 474.413, 264.189 459.500 C 257.755 429.053, 255.333 370.618, 259.095 336.590 C 260.568 323.265, 261.030 323.108, 266.529 334.061 C 278.758 358.418, 295.191 375.523, 316.500 386.074 C 330.131 392.824, 339.691 395.204, 353.500 395.285 C 376.534 395.419, 395.484 387.953, 417.419 370.099 C 427.248 362.098, 434.864 357.460, 441.723 355.298 C 444.625 354.383, 447 353.238, 447 352.753 C 447 352.268, 446.046 349.653, 444.880 346.943 L 442.760 342.015 438.630 342.757 C 436.359 343.166, 430.900 343.468, 426.500 343.428 C 417.749 343.350, 414.264 342.074, 409.858 337.339 C 405.745 332.919, 399.789 320.712, 400.170 317.484 C 400.478 314.875, 401.027 314.566, 408.443 312.822 C 419.073 310.322, 429.364 305.221, 438.331 298.007 C 445.528 292.217, 450.150 287.012, 462.776 270.474 C 470.958 259.756, 477.365 254.889, 486.300 252.603 C 489.106 251.885, 491.562 250.815, 491.758 250.225 C 491.955 249.635, 490.098 247.970, 487.633 246.525 C 484.196 244.511, 480.854 243.654, 473.325 242.855 C 461.859 241.639, 457.215 239.831, 448 233 C 440.157 227.186, 434.748 224.647, 426.750 223.024 C 423.587 222.383, 421 221.761, 421 221.641 C 421 221.522, 422.363 217.517, 424.028 212.742 C 425.693 207.967, 428.138 197.570, 429.460 189.638 C 433.047 168.127, 435.283 161.571, 441.591 154.074 C 444.017 151.191, 444.136 150.708, 442.760 149.332 C 441.384 147.956, 440.383 148.014, 432.924 149.900 C 424.401 152.055, 413.712 152.566, 402.240 151.367 L 396.187 150.735 395.556 146.117 C 394.167 135.962, 394.186 135.998, 390.171 136.017 C 386.872 136.033, 375.331 138.125, 371.050 139.484 C 369.568 139.955, 369.220 138.019, 367.949 122.257 C 366.478 104.005, 366.470 96.161, 367.913 88.435 C 368.682 84.319, 368.589 84.001, 366.621 84.018 C 365.454 84.028, 360.675 85.650, 356 87.622 C 351.325 89.594, 345.335 91.878, 342.688 92.697 C 337.989 94.152, 337.789 94.126, 334.135 91.593 C 332.076 90.167, 329.292 89.010, 327.946 89.022 C 324.632 89.052, 317.894 92.214, 310.740 97.098 C 307.479 99.323, 304.705 100.999, 304.575 100.822 C 304.446 100.645, 303.555 97.524, 302.596 93.887 C 298.567 78.609, 292.800 70.285, 276.866 56.754 C 263.642 45.523, 258.577 39.040, 256.909 31.209 C 255.714 25.595, 253.722 21.992, 252.734 23.654 M 250.966 58.048 C 249.772 59.725, 244.454 64.949, 239.148 69.657 C 233.841 74.365, 228.278 80.012, 226.785 82.207 C 222.750 88.137, 220.036 96.273, 219.338 104.534 L 218.716 111.884 222.726 116.692 C 224.932 119.336, 227.943 123.892, 229.419 126.816 C 230.894 129.741, 232.506 131.991, 233.002 131.816 C 233.498 131.642, 237.906 128.008, 242.800 123.739 L 251.696 115.979 252.363 104.308 C 252.730 97.889, 253.248 92.419, 253.515 92.152 C 254.624 91.042, 255.032 93.214, 255.660 103.583 L 256.322 114.500 264.936 123.250 C 269.674 128.063, 274.098 132, 274.767 132 C 275.436 132, 277.321 129.629, 278.956 126.731 C 280.592 123.834, 284.023 119.010, 286.582 116.012 C 291.058 110.769, 291.215 110.371, 290.715 105.531 C 289.989 98.509, 286.608 89.411, 282.512 83.457 C 280.603 80.684, 275.296 75.163, 270.717 71.188 C 266.138 67.213, 260.706 61.945, 258.646 59.481 C 256.586 57.016, 254.503 55, 254.018 55 C 253.533 55, 252.159 56.372, 250.966 58.048 M 161.607 108.582 C 160.458 111.575, 161.002 128.752, 162.527 137.619 C 164.344 148.191, 166.364 154.616, 168.916 157.935 L 170.788 160.371 174.304 153.389 C 176.238 149.549, 179.612 144.140, 181.802 141.369 C 185.822 136.284, 196.597 127.492, 200.750 125.908 C 201.988 125.436, 202.982 124.701, 202.961 124.275 C 202.940 123.849, 200.802 121.936, 198.211 120.024 C 185.554 110.684, 163.451 103.775, 161.607 108.582 M 333.500 108.872 C 325.277 111.242, 316.670 115.281, 309.373 120.193 L 303.245 124.318 308.373 126.837 C 317.300 131.224, 332.718 148.535, 337.418 159.448 C 338.797 162.649, 346.325 148.833, 347.992 140.040 C 349.311 133.089, 349.291 111.413, 347.965 108.934 C 346.658 106.493, 341.827 106.472, 333.500 108.872 M 206.384 133.913 C 200.726 136.483, 188.889 147.890, 183.591 155.881 C 171.201 174.565, 166.358 201.829, 170.514 229.500 C 173.089 246.648, 178.631 260.191, 187.498 271 C 193.399 278.193, 194.962 278.576, 191.019 271.861 C 180.433 253.838, 175.401 232.867, 176.295 210.500 C 176.736 199.467, 179.119 184.404, 180.937 181.149 C 181.353 180.406, 181.649 191.656, 181.596 206.149 C 181.496 233.500, 181.915 237.570, 186.205 251 C 190.260 263.693, 200.392 281.017, 206.632 285.925 C 211.780 289.975, 210.986 287.900, 204.572 280.546 C 196.683 271.500, 191.644 261.800, 188.219 249.070 C 185.937 240.587, 185.641 237.569, 185.618 222.500 C 185.587 202.641, 187.216 194.700, 194.474 179.322 C 200.080 167.442, 203.687 162.188, 212.591 152.931 C 220.002 145.226, 221.705 141.946, 220.594 137.518 C 219.951 134.956, 215.465 131.983, 212.300 132.022 C 211.310 132.034, 208.648 132.885, 206.384 133.913 M 292.255 133.195 C 288.118 134.291, 285.546 138.055, 286.456 141.682 C 286.829 143.165, 290.938 148.377, 295.589 153.264 C 302.694 160.730, 304.918 163.936, 309.509 173.325 C 325.650 206.333, 324.527 245.301, 306.664 272.078 C 304.675 275.060, 302.270 278.625, 301.319 280 L 299.591 282.500 302.404 280 C 306.728 276.157, 313.706 265.926, 317.083 258.478 C 323.328 244.703, 325.901 226.408, 326.079 194.500 C 326.153 181.142, 326.308 179.828, 327.492 182.500 C 329.843 187.804, 331.291 204.507, 330.735 219.901 C 330.310 231.663, 329.694 236.249, 327.565 243.500 C 323.258 258.175, 316.920 269.857, 308.283 279.037 C 297.880 290.095, 301.242 289.058, 312.453 277.750 C 330.668 259.378, 338.973 238.392, 338.992 210.692 C 339.009 187.149, 333.772 168.182, 323.454 154.420 C 311.721 138.769, 300.369 131.047, 292.255 133.195 M 249.946 139.612 C 248.051 141.599, 241.394 147.739, 235.154 153.255 C 228.914 158.772, 221.397 166.209, 218.450 169.781 C 211.359 178.378, 204.553 192.176, 201.324 204.500 C 197.828 217.846, 197.564 239.278, 200.752 251.003 C 203.880 262.508, 209.667 273.666, 211.537 271.796 C 211.806 271.527, 210.894 268.300, 209.511 264.625 C 208.127 260.950, 206.514 255.818, 205.926 253.221 C 204.739 247.981, 204.490 227.238, 205.546 221.608 C 206.841 214.705, 208 218.067, 208.008 228.750 C 208.012 234.662, 208.471 242.425, 209.029 246 C 210.349 254.463, 213.797 266, 215.006 266 C 215.527 266, 216.645 264.945, 217.491 263.655 C 218.851 261.578, 218.860 260.908, 217.564 257.807 C 214.830 251.265, 213.187 231.551, 214.642 222.750 C 215.779 215.868, 216.999 218.889, 217.065 228.750 C 217.100 234.113, 217.888 243.296, 218.815 249.159 L 220.500 259.817 227.441 255.677 C 234.149 251.675, 234.718 251.524, 244.441 251.168 C 260.138 250.592, 276.981 255.387, 289.486 263.991 C 295.044 267.814, 295.724 267.459, 299.992 258.517 C 304.972 248.082, 306.371 240.332, 306.403 223 C 306.428 209.961, 306.071 206.150, 304.154 199 C 299.297 180.880, 291.098 168.336, 275.210 154.718 C 270.420 150.612, 263.831 144.720, 260.569 141.626 C 257.308 138.532, 254.358 136, 254.016 136 C 253.673 136, 251.842 137.626, 249.946 139.612 M 123.446 162.088 C 123.161 162.548, 123.392 166.620, 123.958 171.136 C 124.524 175.651, 124.863 179.471, 124.710 179.623 C 124.558 179.775, 122.424 178.594, 119.967 176.999 C 114.874 173.691, 105.598 171, 99.290 171 C 96.930 171, 95 171.169, 95 171.375 C 95 171.581, 96.547 175.146, 98.439 179.296 C 100.330 183.446, 103.298 191.490, 105.034 197.171 C 112.018 220.028, 113.420 223.933, 118.463 234.592 C 130.161 259.316, 144.969 274.960, 166.072 284.885 C 170.707 287.066, 175.625 289.132, 177 289.477 C 179.402 290.079, 179.382 290.013, 176.507 287.802 C 161.783 276.478, 147.573 260.506, 138.620 245.215 C 132.902 235.449, 121.717 210.943, 122.589 210.092 C 123.703 209.004, 128.481 215.764, 136.443 229.693 C 140.784 237.287, 145.684 245.525, 147.332 248 C 151.080 253.628, 161.094 265.239, 161.688 264.645 C 161.932 264.402, 160.804 261.569, 159.183 258.351 C 152.971 246.023, 150.852 236.905, 150.267 220 C 149.744 204.896, 149.646 204.334, 146.406 198 C 144.577 194.425, 142.119 190.037, 140.943 188.250 C 139.766 186.463, 139.102 185, 139.468 185 C 141.322 185, 144.100 187.445, 148.023 192.530 L 152.369 198.163 155.740 188.455 L 159.112 178.748 156.806 176.231 C 153.398 172.513, 143.543 166.340, 138.187 164.569 C 131.513 162.363, 124.052 161.107, 123.446 162.088 M 374 163.434 C 367.097 165.360, 357.306 170.676, 352.496 175.110 L 348.160 179.107 350.215 183.752 C 351.345 186.307, 353.018 191.054, 353.934 194.301 L 355.599 200.205 359.743 194.852 C 365.210 187.790, 373.774 179.441, 374.651 180.317 C 375.034 180.700, 373.911 182.923, 372.155 185.257 C 367.043 192.049, 361.805 200.240, 360.348 203.718 C 359.607 205.488, 359 209.775, 359 213.244 C 359 228.889, 354.451 248.272, 348.086 259.750 C 346.485 262.637, 345.541 265, 345.989 265 C 347.671 265, 360.829 249.888, 366.142 241.853 C 369.180 237.259, 374.194 229.675, 377.284 225 C 389.233 206.924, 391.599 206.307, 383.588 223.358 C 369.179 254.023, 354.941 271.638, 332 287.181 C 324.300 292.398, 324.577 292.478, 336.394 288.450 C 357.634 281.210, 378.039 261.992, 389.938 238.020 C 395.445 226.925, 397.633 221.032, 402.515 204.134 C 406.040 191.936, 409.747 183.362, 414.790 175.741 C 418.049 170.816, 416.798 169.688, 409 170.522 C 401.799 171.292, 394.777 173.582, 388.067 177.348 C 383.348 179.997, 382.733 180.141, 383.388 178.449 C 384.667 175.145, 387 165.679, 387 163.790 C 387 162.337, 386.200 162.017, 382.750 162.089 C 380.413 162.139, 376.475 162.744, 374 163.434 M 386.572 194.133 C 382.516 198.269, 377.488 204.319, 375.400 207.577 C 371.208 214.116, 358 239.595, 358 241.141 C 358 243.389, 360.470 239.963, 373.062 220.251 C 380.353 208.838, 388.341 196.908, 390.815 193.739 C 393.288 190.571, 395.005 187.671, 394.629 187.296 C 394.254 186.921, 390.628 189.998, 386.572 194.133 M 119 190.671 C 119 191.040, 119.609 192.053, 120.353 192.921 C 121.096 193.790, 125.686 201.025, 130.552 209 C 135.418 216.975, 141.594 226.875, 144.277 231 C 148.527 237.535, 149.063 238.050, 148.451 235 C 147.636 230.946, 139.318 213.976, 134.288 206.106 C 128.965 197.777, 119 187.717, 119 190.671 M 299.717 230.647 C 299.314 240.158, 298.449 247.007, 296.959 252.500 C 293.478 265.330, 293.421 265.712, 295.229 264.219 C 300.078 260.214, 303.611 243.210, 302.615 228.671 C 301.640 214.438, 300.368 215.306, 299.717 230.647 M 230.750 218.578 C 229.845 219.489, 229.930 242.543, 230.850 245.809 C 231.934 249.661, 233.524 248.206, 233.147 243.708 C 232.953 241.394, 232.503 234.622, 232.147 228.661 C 231.791 222.699, 231.162 218.162, 230.750 218.578 M 271.472 238.010 C 271.444 252.082, 272.505 255.612, 274.304 247.426 C 275.165 243.506, 274.543 228.579, 273.394 225.583 C 271.960 221.849, 271.498 224.837, 271.472 238.010 M 285.657 238.183 C 285.322 245.507, 284.745 253.074, 284.374 254.997 C 283.773 258.119, 283.871 258.352, 285.295 257.170 C 286.172 256.442, 287.408 253.353, 288.040 250.306 C 289.407 243.723, 288.970 227.567, 287.383 225.982 C 286.560 225.159, 286.105 228.374, 285.657 238.183 M 84.181 239.119 C 81.256 239.605, 74.056 241.842, 68.181 244.089 C 62.306 246.336, 55.490 248.885, 53.034 249.754 L 48.569 251.335 52.512 254.418 C 54.681 256.113, 62.316 263.125, 69.478 270 C 83.450 283.412, 90.751 288.820, 99.909 292.541 C 109.662 296.504, 114.333 296.644, 123 293.234 C 127.125 291.611, 131.800 289.970, 133.389 289.588 C 136.194 288.912, 136.096 288.805, 130.034 285.938 C 120.427 281.395, 110.864 274.555, 103.601 267.032 C 96.687 259.871, 94.678 255.959, 100.250 260.508 C 107.750 266.632, 115.758 272.341, 119.500 274.232 C 123.192 276.098, 122.984 275.779, 116.796 270.080 C 109.436 263.303, 102.165 253.115, 98.778 244.836 C 97.577 241.901, 96.124 239.169, 95.547 238.765 C 94.263 237.864, 91.137 237.962, 84.181 239.119 M 414.409 238.765 C 413.808 239.169, 411.437 243.134, 409.138 247.575 C 402.680 260.054, 394.898 268.810, 380.500 279.800 L 377.500 282.090 382 279.908 C 389.850 276.102, 395.246 271.873, 404.750 262.075 C 413.722 252.827, 415.237 251.751, 412.865 256.316 C 408.368 264.969, 394.719 277.910, 382 285.580 C 376.303 289.016, 375.809 289.543, 377.997 289.852 C 379.370 290.045, 383.370 291.508, 386.885 293.102 C 394.362 296.492, 397.712 296.680, 405.142 294.123 C 417.665 289.815, 425.093 284.730, 441.052 269.542 C 446.855 264.019, 453.703 257.925, 456.271 256 C 458.838 254.075, 460.952 252.245, 460.969 251.933 C 460.986 251.621, 458.494 250.575, 455.430 249.610 C 452.367 248.644, 446.855 246.489, 443.180 244.821 C 439.506 243.152, 434.067 240.935, 431.093 239.894 C 425.691 238.002, 416.470 237.378, 414.409 238.765 M 136 297.692 C 127.353 299.143, 118.295 303.530, 116.407 307.180 C 114.429 311.004, 115.248 313.218, 119.781 316.298 C 126.308 320.734, 132.509 322.217, 146.500 322.688 C 158.497 323.092, 160.040 323.371, 166.500 326.313 C 173.228 329.376, 174.006 329.500, 186.500 329.489 C 205.812 329.473, 220.500 325.316, 231.206 316.837 L 235.152 313.712 249.127 313.916 C 257.652 314.041, 264.481 313.666, 266.637 312.955 C 269.933 311.867, 270.417 311.996, 273.835 314.871 C 279.548 319.675, 286.783 323.603, 295.500 326.634 C 302.838 329.184, 304.742 329.418, 318.500 329.457 C 333.383 329.500, 333.554 329.475, 340.388 326.250 C 346.947 323.156, 347.842 323, 359.089 323 C 365.586 323, 373.286 322.494, 376.201 321.876 C 387.009 319.582, 394.993 313.703, 393.535 309.111 C 391.164 301.641, 374.391 295.721, 360.511 297.455 L 354.917 298.154 362.946 303.327 C 373.823 310.335, 374.646 312.629, 366.172 312.317 C 350.182 311.730, 153.123 311.733, 147 312.321 C 133.654 313.602, 133.582 310.471, 146.788 303.079 C 152.950 299.630, 154.528 298.341, 153.226 297.825 C 151.371 297.090, 140.107 297.003, 136 297.692 M 118.743 336.429 C 116.676 337.166, 112.537 339.861, 109.544 342.418 C 104.746 346.517, 100.338 348.998, 93.500 351.447 C 91.745 352.075, 91.990 352.415, 95.500 354.220 C 97.700 355.352, 104.435 359.444, 110.466 363.314 C 124.556 372.356, 132.505 375.217, 145.119 375.787 C 150.409 376.026, 157.051 375.726, 159.880 375.119 C 168.348 373.303, 179.969 368.377, 190.565 362.112 C 199.785 356.661, 211.656 347.323, 210.647 346.314 C 210.411 346.077, 207.580 346.976, 204.358 348.312 C 201.136 349.648, 195.575 351.682, 192 352.833 C 182.339 355.942, 144.917 365.139, 143.647 364.716 C 141.776 364.092, 151.508 358.994, 161.119 355.562 L 170.272 352.294 164.939 351.586 C 156.944 350.526, 149.798 347.684, 141.869 342.413 C 130.833 335.076, 126.021 333.831, 118.743 336.429 M 376.099 337.087 C 374.778 337.615, 370.728 340.002, 367.099 342.392 C 358.847 347.825, 350.544 350.926, 342.066 351.741 L 335.500 352.373 339.500 353.552 C 344.985 355.169, 358.845 360.970, 362.500 363.180 C 365.468 364.973, 365.473 364.993, 363.014 364.996 C 360.218 365, 326.765 356.260, 314.500 352.321 C 310.100 350.908, 304.363 348.723, 301.750 347.466 C 299.137 346.209, 297 345.548, 297 345.998 C 297 347.096, 306.417 355.503, 311.787 359.197 C 314.163 360.832, 321.145 364.565, 327.303 367.492 C 354.690 380.510, 371.408 379.185, 401.235 361.630 C 406.559 358.497, 412.617 355.222, 414.698 354.353 L 418.482 352.772 412.324 350.541 C 408.936 349.315, 403.065 346.013, 399.276 343.205 C 395.487 340.396, 391.146 337.626, 389.628 337.049 C 386.258 335.767, 379.350 335.787, 376.099 337.087" stroke="none" fill="white" fill-rule="evenodd"/>
</svg>